<mxfile host="app.diagrams.net" modified="2024-03-04T17:21:27.452Z" agent="Mozilla/5.0 (Windows NT 10.0; Win64; x64) AppleWebKit/537.36 (KHTML, like Gecko) Chrome/122.0.0.0 Safari/537.36" version="24.0.0" etag="lTGhYBVqENco5j1trRQE" type="device">
  <diagram id="rl54wlvmN0R0-QwF60Wa" name="Page-1">
    <mxGraphModel dx="1050" dy="522" grid="1" gridSize="10" guides="1" tooltips="1" connect="1" arrows="1" fold="1" page="1" pageScale="1" pageWidth="850" pageHeight="1100" math="0" shadow="0">
      <root>
        <mxCell id="0" />
        <mxCell id="1" parent="0" />
        <mxCell id="dy_-t8J2YhlQkaY8AgB7-6" value="Scrapper Alert @ 90 Sec" style="html=1;verticalAlign=bottom;endArrow=block;curved=0;rounded=0;entryX=1;entryY=0;entryDx=0;entryDy=5;exitX=1;exitY=1;exitDx=0;exitDy=-5;exitPerimeter=0;entryPerimeter=0;" edge="1" target="dy_-t8J2YhlQkaY8AgB7-5" parent="1" source="dy_-t8J2YhlQkaY8AgB7-8">
          <mxGeometry relative="1" as="geometry">
            <mxPoint x="240" y="145" as="sourcePoint" />
          </mxGeometry>
        </mxCell>
        <mxCell id="dy_-t8J2YhlQkaY8AgB7-7" value="Scrapper Log Alert&amp;nbsp;" style="html=1;verticalAlign=bottom;endArrow=open;dashed=1;endSize=8;curved=0;rounded=0;exitX=0;exitY=1;exitDx=0;exitDy=-5;" edge="1" source="dy_-t8J2YhlQkaY8AgB7-5" parent="1" target="dy_-t8J2YhlQkaY8AgB7-12">
          <mxGeometry relative="1" as="geometry">
            <mxPoint x="710" y="275" as="targetPoint" />
          </mxGeometry>
        </mxCell>
        <mxCell id="dy_-t8J2YhlQkaY8AgB7-9" value="Http End Point&amp;nbsp;" style="html=1;verticalAlign=bottom;startArrow=oval;endArrow=block;startSize=8;curved=0;rounded=0;entryX=0;entryY=0;entryDx=0;entryDy=5;exitX=0.48;exitY=0.727;exitDx=0;exitDy=0;exitPerimeter=0;" edge="1" target="dy_-t8J2YhlQkaY8AgB7-8" parent="1">
          <mxGeometry relative="1" as="geometry">
            <mxPoint x="94.40000000000009" y="133.62" as="sourcePoint" />
          </mxGeometry>
        </mxCell>
        <mxCell id="dy_-t8J2YhlQkaY8AgB7-12" value="" style="html=1;points=[[0,0,0,0,5],[0,1,0,0,-5],[1,0,0,0,5],[1,1,0,0,-5]];perimeter=orthogonalPerimeter;outlineConnect=0;targetShapes=umlLifeline;portConstraint=eastwest;newEdgeStyle={&quot;curved&quot;:0,&quot;rounded&quot;:0};fillColor=#FF9999;" vertex="1" parent="1">
          <mxGeometry x="700" y="270" width="10" height="80" as="geometry" />
        </mxCell>
        <mxCell id="dy_-t8J2YhlQkaY8AgB7-13" value="Scrapper Log" style="shape=umlLifeline;perimeter=lifelinePerimeter;whiteSpace=wrap;html=1;container=1;dropTarget=0;collapsible=0;recursiveResize=0;outlineConnect=0;portConstraint=eastwest;newEdgeStyle={&quot;curved&quot;:0,&quot;rounded&quot;:0};fillColor=#FFF4C3;" vertex="1" parent="1">
          <mxGeometry x="160" y="20" width="100" height="740" as="geometry" />
        </mxCell>
        <mxCell id="dy_-t8J2YhlQkaY8AgB7-5" value="" style="html=1;points=[[0,0,0,0,5],[0,1,0,0,-5],[1,0,0,0,5],[1,1,0,0,-5]];perimeter=orthogonalPerimeter;outlineConnect=0;targetShapes=umlLifeline;portConstraint=eastwest;newEdgeStyle={&quot;curved&quot;:0,&quot;rounded&quot;:0};fillColor=#FF6666;" vertex="1" parent="dy_-t8J2YhlQkaY8AgB7-13">
          <mxGeometry x="45" y="180" width="10" height="80" as="geometry" />
        </mxCell>
        <mxCell id="dy_-t8J2YhlQkaY8AgB7-27" value="" style="html=1;points=[[0,0,0,0,5],[0,1,0,0,-5],[1,0,0,0,5],[1,1,0,0,-5]];perimeter=orthogonalPerimeter;outlineConnect=0;targetShapes=umlLifeline;portConstraint=eastwest;newEdgeStyle={&quot;curved&quot;:0,&quot;rounded&quot;:0};fillColor=#F19C99;strokeColor=#000000;" vertex="1" parent="dy_-t8J2YhlQkaY8AgB7-13">
          <mxGeometry x="45" y="440" width="10" height="80" as="geometry" />
        </mxCell>
        <mxCell id="dy_-t8J2YhlQkaY8AgB7-14" value="Xunit Test" style="shape=umlLifeline;perimeter=lifelinePerimeter;whiteSpace=wrap;html=1;container=1;dropTarget=0;collapsible=0;recursiveResize=0;outlineConnect=0;portConstraint=eastwest;newEdgeStyle={&quot;curved&quot;:0,&quot;rounded&quot;:0};fillColor=#FFF4C3;" vertex="1" parent="1">
          <mxGeometry x="410" y="20" width="100" height="730" as="geometry" />
        </mxCell>
        <mxCell id="dy_-t8J2YhlQkaY8AgB7-8" value="" style="html=1;points=[[0,0,0,0,5],[0,1,0,0,-5],[1,0,0,0,5],[1,1,0,0,-5]];perimeter=orthogonalPerimeter;outlineConnect=0;targetShapes=umlLifeline;portConstraint=eastwest;newEdgeStyle={&quot;curved&quot;:0,&quot;rounded&quot;:0};fillColor=#FF9999;" vertex="1" parent="dy_-t8J2YhlQkaY8AgB7-14">
          <mxGeometry x="45" y="110" width="10" height="80" as="geometry" />
        </mxCell>
        <mxCell id="dy_-t8J2YhlQkaY8AgB7-21" value="" style="html=1;points=[[0,0,0,0,5],[0,1,0,0,-5],[1,0,0,0,5],[1,1,0,0,-5]];perimeter=orthogonalPerimeter;outlineConnect=0;targetShapes=umlLifeline;portConstraint=eastwest;newEdgeStyle={&quot;curved&quot;:0,&quot;rounded&quot;:0};fillColor=#F19C99;strokeColor=#000000;" vertex="1" parent="dy_-t8J2YhlQkaY8AgB7-14">
          <mxGeometry x="45" y="360" width="10" height="80" as="geometry" />
        </mxCell>
        <mxCell id="dy_-t8J2YhlQkaY8AgB7-24" value="" style="html=1;points=[[0,0,0,0,5],[0,1,0,0,-5],[1,0,0,0,5],[1,1,0,0,-5]];perimeter=orthogonalPerimeter;outlineConnect=0;targetShapes=umlLifeline;portConstraint=eastwest;newEdgeStyle={&quot;curved&quot;:0,&quot;rounded&quot;:0};fillColor=#F19C99;" vertex="1" parent="dy_-t8J2YhlQkaY8AgB7-14">
          <mxGeometry x="45" y="520" width="10" height="80" as="geometry" />
        </mxCell>
        <mxCell id="dy_-t8J2YhlQkaY8AgB7-15" value="Discord Webhook" style="shape=umlLifeline;perimeter=lifelinePerimeter;whiteSpace=wrap;html=1;container=1;dropTarget=0;collapsible=0;recursiveResize=0;outlineConnect=0;portConstraint=eastwest;newEdgeStyle={&quot;curved&quot;:0,&quot;rounded&quot;:0};fillColor=#fff2cc;strokeColor=#080000;size=30;" vertex="1" parent="1">
          <mxGeometry x="655" y="25" width="100" height="720" as="geometry" />
        </mxCell>
        <mxCell id="dy_-t8J2YhlQkaY8AgB7-28" value="" style="html=1;points=[[0,0,0,0,5],[0,1,0,0,-5],[1,0,0,0,5],[1,1,0,0,-5]];perimeter=orthogonalPerimeter;outlineConnect=0;targetShapes=umlLifeline;portConstraint=eastwest;newEdgeStyle={&quot;curved&quot;:0,&quot;rounded&quot;:0};fillColor=#F19C99;strokeColor=#000000;" vertex="1" parent="dy_-t8J2YhlQkaY8AgB7-15">
          <mxGeometry x="45" y="595" width="10" height="80" as="geometry" />
        </mxCell>
        <mxCell id="dy_-t8J2YhlQkaY8AgB7-17" value="Discord Alert&amp;nbsp;" style="html=1;verticalAlign=bottom;endArrow=block;curved=0;rounded=0;" edge="1" parent="1" target="dy_-t8J2YhlQkaY8AgB7-36">
          <mxGeometry width="80" relative="1" as="geometry">
            <mxPoint x="710" y="350" as="sourcePoint" />
            <mxPoint x="88.80999999999995" y="347.20000000000005" as="targetPoint" />
          </mxGeometry>
        </mxCell>
        <mxCell id="dy_-t8J2YhlQkaY8AgB7-22" value="&amp;lt;10000 Bytes" style="html=1;verticalAlign=bottom;endArrow=block;curved=0;rounded=0;entryX=0;entryY=0;entryDx=0;entryDy=5;" edge="1" target="dy_-t8J2YhlQkaY8AgB7-21" parent="1" source="dy_-t8J2YhlQkaY8AgB7-13">
          <mxGeometry relative="1" as="geometry">
            <mxPoint x="385" y="385" as="sourcePoint" />
          </mxGeometry>
        </mxCell>
        <mxCell id="dy_-t8J2YhlQkaY8AgB7-23" value="return" style="html=1;verticalAlign=bottom;endArrow=open;dashed=1;endSize=8;curved=0;rounded=0;exitX=0;exitY=1;exitDx=0;exitDy=-5;" edge="1" source="dy_-t8J2YhlQkaY8AgB7-21" parent="1" target="dy_-t8J2YhlQkaY8AgB7-13">
          <mxGeometry relative="1" as="geometry">
            <mxPoint x="385" y="455" as="targetPoint" />
          </mxGeometry>
        </mxCell>
        <mxCell id="dy_-t8J2YhlQkaY8AgB7-26" value="Discord Alert&amp;nbsp;" style="html=1;verticalAlign=bottom;endArrow=open;dashed=1;endSize=8;curved=0;rounded=0;exitX=0;exitY=1;exitDx=0;exitDy=-5;" edge="1" source="dy_-t8J2YhlQkaY8AgB7-24" parent="1" target="dy_-t8J2YhlQkaY8AgB7-15">
          <mxGeometry relative="1" as="geometry">
            <mxPoint x="460" y="485" as="targetPoint" />
          </mxGeometry>
        </mxCell>
        <mxCell id="dy_-t8J2YhlQkaY8AgB7-25" value="dispatch" style="html=1;verticalAlign=bottom;endArrow=block;curved=0;rounded=0;exitX=1;exitY=0;exitDx=0;exitDy=5;exitPerimeter=0;" edge="1" target="dy_-t8J2YhlQkaY8AgB7-13" parent="1" source="dy_-t8J2YhlQkaY8AgB7-24">
          <mxGeometry relative="1" as="geometry">
            <mxPoint x="784.5" y="415" as="sourcePoint" />
          </mxGeometry>
        </mxCell>
        <mxCell id="dy_-t8J2YhlQkaY8AgB7-29" value="Alert Email" style="html=1;verticalAlign=bottom;endArrow=block;curved=0;rounded=0;exitX=0;exitY=1;exitDx=0;exitDy=-5;exitPerimeter=0;" edge="1" parent="1" source="dy_-t8J2YhlQkaY8AgB7-28" target="dy_-t8J2YhlQkaY8AgB7-36">
          <mxGeometry width="80" relative="1" as="geometry">
            <mxPoint x="380" y="580" as="sourcePoint" />
            <mxPoint x="100" y="699.8780487804879" as="targetPoint" />
          </mxGeometry>
        </mxCell>
        <mxCell id="dy_-t8J2YhlQkaY8AgB7-36" value="" style="shape=umlLifeline;perimeter=lifelinePerimeter;whiteSpace=wrap;html=1;container=1;dropTarget=0;collapsible=0;recursiveResize=0;outlineConnect=0;portConstraint=eastwest;newEdgeStyle={&quot;curved&quot;:0,&quot;rounded&quot;:0};participant=umlActor;" vertex="1" parent="1">
          <mxGeometry x="85" y="25" width="20" height="745" as="geometry" />
        </mxCell>
      </root>
    </mxGraphModel>
  </diagram>
</mxfile>
